Coordinates
version=1
nRows=20
nColumns=38
inDegrees=no

Units are S.I. units (second, meters, Newtons, ...)
If the header above contains a line with 'inDegrees', this indicates whether rotational values are in degrees (yes) or radians (no).

endheader
time	pelvis_tilt	pelvis_list	pelvis_rotation	pelvis_tx	pelvis_ty	pelvis_tz	hip_flexion_r	hip_adduction_r	hip_rotation_r	knee_angle_r	ankle_angle_r	subtalar_angle_r	mtp_angle_r	hip_flexion_l	hip_adduction_l	hip_rotation_l	knee_angle_l	ankle_angle_l	subtalar_angle_l	mtp_angle_l	lumbar_extension	lumbar_bending	lumbar_rotation	arm_flex_r	arm_add_r	arm_rot_r	elbow_flex_r	pro_sup_r	wrist_flex_r	wrist_dev_r	arm_flex_l	arm_add_l	arm_rot_l	elbow_flex_l	pro_sup_l	wrist_flex_l	wrist_dev_l
1	-2.17051	1.52758	-2.55536	0.775151	0.706673	0.988921	0.0491727	-0.167582	-0.233439	0.94814	-0.0548106	0	0	0.383839	0.024671	-0.238464	0.471044	0.03733	0	0	-0.287247	-0.0495727	0.0508204	-0.0746472	-0.216385	0.0661957	0.437353	1.36754	0	0	0.0534487	-0.268736	0.434144	0.442462	1.31879	0	0
1.01	-1.8711	1.52509	-2.86389	0.774455	0.716685	0.987772	0.103094	-0.18208	-0.204075	1.01601	-0.108138	0	0	0.387257	0.0299495	-0.250986	0.478943	0.052286	0	0	-0.272183	-0.0598374	0.0589092	-0.0795776	-0.219191	0.0672035	0.439947	1.36882	0	0	0.0493847	-0.272383	0.443097	0.450214	1.3133	0	0
1.02	-1.62084	1.5273	-3.12689	0.773946	0.727157	0.986049	0.156838	-0.18392	-0.171926	1.07892	-0.161338	0	0	0.388876	0.0276646	-0.25833	0.484111	0.0719219	0	0	-0.253674	-0.0608171	0.0728275	-0.0885833	-0.225652	0.070976	0.447093	1.3683	0	0	0.042118	-0.273498	0.450745	0.45917	1.30785	0	0
1.03	-1.58347	1.51837	3.10991	0.772359	0.735888	0.987344	0.208363	-0.215339	-0.155319	1.14353	-0.226094	0	0	0.380905	0.0404799	-0.268936	0.484159	0.0692522	0	0	-0.253548	-0.0702358	0.0774892	-0.0851889	-0.229687	0.0762687	0.448706	1.36536	0	0	0.0431434	-0.273969	0.456579	0.465548	1.3013	0	0
1.04	-1.4255	1.51631	2.94482	0.771719	0.74617	0.986346	0.246598	-0.205584	-0.115888	1.18082	-0.269266	0	0	0.378992	0.0423201	-0.270858	0.486608	0.0831418	0	0	-0.238282	-0.0721144	0.0857163	-0.0936498	-0.233955	0.0800806	0.456946	1.3619	0	0	0.0366322	-0.276282	0.462616	0.476134	1.29533	0	0
1.05	-1.4435	1.51409	2.96013	0.770921	0.755475	0.987784	0.279918	-0.205832	-0.092853	1.22078	-0.320839	0	0	0.366875	0.0463226	-0.274925	0.484772	0.0881231	0	0	-0.238429	-0.0746346	0.0884305	-0.0953833	-0.237063	0.0837242	0.463696	1.35723	0	0	0.0377522	-0.276552	0.4687	0.480902	1.28864	0	0
1.06	-1.48617	1.51486	3.00217	0.770206	0.764633	0.989688	0.308394	-0.200717	-0.0722408	1.25637	-0.352842	0	0	0.351914	0.0487938	-0.272339	0.48073	0.0929675	0	0	-0.241247	-0.0739564	0.0899023	-0.0957576	-0.239364	0.0855756	0.468797	1.35212	0	0	0.0408687	-0.275101	0.473106	0.481789	1.28225	0	0
1.07	-1.53413	1.51863	3.05087	0.769599	0.7737	0.991727	0.334307	-0.190874	-0.0546815	1.28916	-0.360035	0	0	0.335512	0.0487013	-0.265595	0.474951	0.0980199	0	0	-0.244657	-0.0698514	0.0907822	-0.0954481	-0.241364	0.0862244	0.472571	1.34744	0	0	0.0447402	-0.272303	0.475011	0.480251	1.27682	0	0
1.08	-1.62658	1.51535	-3.1359	0.768932	0.78213	0.994636	0.357342	-0.190252	-0.041453	1.31768	-0.351111	0	0	0.31572	0.055174	-0.266308	0.464466	0.0962563	0	0	-0.252912	-0.073369	0.0860249	-0.0894247	-0.239969	0.085952	0.470139	1.34309	0	0	0.0521541	-0.2702	0.474206	0.475442	1.27231	0	0
1.09	-1.63146	1.52958	-3.13194	0.768468	0.791815	0.995569	0.382931	-0.169717	-0.0327057	1.34323	-0.328443	0	0	0.300689	0.0446464	-0.250708	0.457976	0.109383	0	0	-0.249525	-0.0571534	0.0914845	-0.0919483	-0.244634	0.0857415	0.472537	1.34058	0	0	0.053326	-0.26409	0.474157	0.470416	1.26994	0	0
1.1	-1.70683	1.52605	-3.05332	0.767822	0.800256	0.998177	0.405515	-0.170427	-0.0238917	1.3629	-0.306358	0	0	0.28135	0.0507593	-0.25223	0.445644	0.10874	0	0	-0.255552	-0.0604918	0.0871346	-0.0840137	-0.242887	0.0862936	0.464811	1.33591	0	0	0.0612928	-0.260641	0.471172	0.46033	1.26954	0	0
1.11	-1.64801	1.53841	-3.11219	0.767115	0.809814	0.998689	0.432308	-0.153714	-0.0191838	1.37886	-0.283718	0	0	0.269037	0.041935	-0.241836	0.437665	0.120689	0	0	-0.248957	-0.0460031	0.0904646	-0.0852526	-0.24744	0.0879603	0.464815	1.33493	0	0	0.0617225	-0.254915	0.471548	0.455113	1.26983	0	0
1.12	-1.66006	1.54135	-3.09749	0.766489	0.8189	1.00022	0.454175	-0.151678	-0.0195032	1.38774	-0.269074	0	0	0.252814	0.0424256	-0.236282	0.426964	0.125023	0	0	-0.248682	-0.0421927	0.0878659	-0.0813554	-0.248126	0.0905345	0.46066	1.33339	0	0	0.0653213	-0.251467	0.471169	0.448168	1.27054	0	0
1.13	-1.70415	1.54381	-3.0509	0.765622	0.827756	1.00198	0.488207	-0.176876	-0.0477515	1.40651	-0.282961	0	0	0.235256	0.0437014	-0.231494	0.414591	0.126698	0	0	-0.250211	-0.038088	0.0845208	-0.0761953	-0.249962	0.0937089	0.456839	1.33053	0	0	0.0702933	-0.245779	0.466173	0.437948	1.27667	0	0
1.14	-1.66119	1.54512	-3.09089	0.764918	0.836537	1.00318	0.51063	-0.173574	-0.0423392	1.40697	-0.276338	0	0	0.221125	0.0453857	-0.229284	0.403795	0.128626	0	0	-0.249158	-0.0358627	0.0804395	-0.0725842	-0.25098	0.0947739	0.456174	1.33012	0	0	0.0728574	-0.244798	0.467087	0.436908	1.2773	0	0
1.15	-1.57761	1.54675	3.11216	0.764143	0.845352	1.00412	0.532287	-0.170799	-0.038911	1.40287	-0.271294	0	0	0.208418	0.0463638	-0.228454	0.393897	0.130173	0	0	-0.246939	-0.0329771	0.0757475	-0.0698893	-0.252731	0.0965086	0.457035	1.32971	0	0	0.0741911	-0.244218	0.467521	0.437524	1.277	0	0
1.16	-1.47113	1.5495	3.01022	0.763403	0.854174	1.00488	0.552028	-0.167873	-0.0381503	1.39445	-0.266003	0	0	0.1964	0.0460951	-0.226892	0.385008	0.132759	0	0	-0.244596	-0.0282742	0.0702448	-0.0680624	-0.255402	0.0984672	0.459716	1.3292	0	0	0.0747682	-0.243713	0.467843	0.439096	1.27597	0	0
1.17	-1.35124	1.55326	2.8957	0.762486	0.862995	1.00555	0.568977	-0.165191	-0.040462	1.38197	-0.258754	0	0	0.184331	0.0447889	-0.222942	0.377054	0.136667	0	0	-0.243022	-0.0218085	0.0643647	-0.0666508	-0.258724	0.100144	0.463048	1.32876	0	0	0.075896	-0.242771	0.469431	0.439458	1.27383	0	0
1.18	-1.22731	1.55788	2.77771	0.761673	0.871773	1.00621	0.582572	-0.162392	-0.0449803	1.36535	-0.250606	0	0	0.171598	0.042412	-0.216889	0.369937	0.139043	0	0	-0.243027	-0.0143105	0.0586139	-0.0650851	-0.262343	0.1022	0.466065	1.32844	0	0	0.0776829	-0.241462	0.471012	0.439061	1.27096	0	0
1.19	-1.01885	1.56297	2.57518	0.760851	0.880504	1.00682	0.593636	-0.159303	-0.0503867	1.34484	-0.240034	0	0	0.15846	0.0393763	-0.209972	0.363097	0.141274	0	0	-0.244132	-0.00612124	0.0535431	-0.0630596	-0.266334	0.105212	0.468415	1.32763	0	0	0.0801116	-0.239302	0.471725	0.437425	1.26823	0	0
